<svg xmlns="http://www.w3.org/2000/svg" viewBox="0 0 240 200" width="240" height="200" fill="none">
  <ellipse cx="120" cy="104" rx="92" ry="78" fill="#EEF2FD"/>
  <circle cx="44" cy="46" r="6" fill="#D8E1FB"/>
  <circle cx="198" cy="54" r="4" fill="#F59E0B" opacity="0.5"/>
  <circle cx="196" cy="150" r="7" fill="#D8E1FB"/>
  <circle cx="40" cy="150" r="4" fill="#F59E0B" opacity="0.45"/>

  <!-- carrosserie -->
  <path d="M58 120 L66 96 C69 88 76 83 85 83 L138 83 C146 83 153 87 157 94 L168 114"
        stroke="#94A3B8" stroke-width="3" stroke-linecap="round" stroke-linejoin="round" fill="#FFFFFF"/>
  <path d="M52 120 L176 120 C181 120 185 124 185 129 L185 134 C185 137 183 139 180 139
           L58 139 C55 139 52 137 52 134 Z" fill="#FFFFFF" stroke="#94A3B8" stroke-width="3" stroke-linecap="round" stroke-linejoin="round"/>
  <path d="M86 86 L132 86 C139 86 145 89 149 95 L156 105 L92 105 C88 105 86 103 86 100 Z"
        fill="#D8E1FB" stroke="#94A3B8" stroke-width="3" stroke-linecap="round" stroke-linejoin="round"/>
  <line x1="118" y1="86" x2="118" y2="105" stroke="#94A3B8" stroke-width="3" stroke-linecap="round" stroke-linejoin="round"/>
  <!-- roues -->
  <circle cx="84" cy="139" r="13" fill="#FFFFFF" stroke="#94A3B8" stroke-width="3" stroke-linecap="round" stroke-linejoin="round"/>
  <circle cx="84" cy="139" r="4" fill="#3B63D4"/>
  <circle cx="156" cy="139" r="13" fill="#FFFFFF" stroke="#94A3B8" stroke-width="3" stroke-linecap="round" stroke-linejoin="round"/>
  <circle cx="156" cy="139" r="4" fill="#3B63D4"/>
  <!-- loupe accent -->
  <circle cx="150" cy="70" r="20" fill="#FFFFFF" stroke="#3B63D4" stroke-width="3" stroke-linecap="round" stroke-linejoin="round"/>
  <circle cx="150" cy="70" r="11" fill="none" stroke="#D8E1FB" stroke-width="2"/>
  <line x1="165" y1="85" x2="178" y2="98" stroke="#F59E0B" stroke-width="5" stroke-linecap="round"/>

</svg>
