<svg xmlns="http://www.w3.org/2000/svg" viewBox="0 0 280 240" width="280" height="240" fill="none">
  <ellipse cx="140" cy="124" rx="110" ry="92" fill="#EEF2FD"/>
  <circle cx="46" cy="50" r="7" fill="#D8E1FB"/>
  <circle cx="236" cy="60" r="5" fill="#F59E0B" opacity="0.55"/>
  <circle cx="238" cy="186" r="8" fill="#D8E1FB"/>
  <circle cx="44" cy="190" r="5" fill="#F59E0B" opacity="0.45"/>

  <!-- voiture -->
  <path d="M64 140 L74 110 C78 100 87 94 98 94 L160 94 C170 94 179 99 184 108 L196 132"
        stroke="#94A3B8" stroke-width="3.5" stroke-linecap="round" stroke-linejoin="round" fill="#FFFFFF"/>
  <path d="M56 140 L208 140 C214 140 219 145 219 151 L219 156 C219 160 216 163 212 163
           L64 163 C60 163 56 160 56 156 Z" fill="#FFFFFF" stroke="#94A3B8" stroke-width="3.5" stroke-linecap="round" stroke-linejoin="round"/>
  <path d="M100 98 L154 98 C162 98 169 101 174 108 L182 120 L108 120 C103 120 100 117 100 113 Z"
        fill="#D8E1FB" stroke="#94A3B8" stroke-width="3.5" stroke-linecap="round" stroke-linejoin="round"/>
  <line x1="138" y1="98" x2="138" y2="120" stroke="#94A3B8" stroke-width="3.5" stroke-linecap="round" stroke-linejoin="round"/>
  <circle cx="98" cy="163" r="15" fill="#FFFFFF" stroke="#94A3B8" stroke-width="3.5" stroke-linecap="round" stroke-linejoin="round"/>
  <circle cx="98" cy="163" r="5" fill="#3B63D4"/>
  <circle cx="182" cy="163" r="15" fill="#FFFFFF" stroke="#94A3B8" stroke-width="3.5" stroke-linecap="round" stroke-linejoin="round"/>
  <circle cx="182" cy="163" r="5" fill="#3B63D4"/>
  <!-- loupe accent -->
  <circle cx="186" cy="80" r="26" fill="#FFFFFF" stroke="#3B63D4" stroke-width="3.5" stroke-linecap="round" stroke-linejoin="round"/>
  <circle cx="186" cy="80" r="14" fill="none" stroke="#D8E1FB" stroke-width="2.5"/>
  <line x1="205" y1="99" x2="222" y2="116" stroke="#F59E0B" stroke-width="6" stroke-linecap="round"/>
  <!-- pin localisation -->
  <path d="M70 70 C62 70 56 76 56 84 C56 94 70 106 70 106 C70 106 84 94 84 84 C84 76 78 70 70 70 Z" fill="#F59E0B"/>
  <circle cx="70" cy="83" r="5" fill="#FFFFFF"/>

</svg>
