<svg xmlns="http://www.w3.org/2000/svg" viewBox="0 0 280 240" width="280" height="240" fill="none">
  <ellipse cx="140" cy="124" rx="110" ry="92" fill="#EEF2FD"/>
  <circle cx="46" cy="50" r="7" fill="#D8E1FB"/>
  <circle cx="236" cy="60" r="5" fill="#F59E0B" opacity="0.55"/>
  <circle cx="238" cy="186" r="8" fill="#D8E1FB"/>
  <circle cx="44" cy="190" r="5" fill="#F59E0B" opacity="0.45"/>

  <!-- telephone -->
  <rect x="96" y="64" width="88" height="120" rx="16" fill="#FFFFFF" stroke="#94A3B8" stroke-width="3.5" stroke-linecap="round" stroke-linejoin="round"/>
  <line x1="128" y1="76" x2="152" y2="76" stroke="#CBD5E1" stroke-width="3" stroke-linecap="round"/>
  <!-- ecran paiement -->
  <rect x="108" y="88" width="64" height="50" rx="8" fill="#EEF2FD"/>
  <text x="140" y="110" font-family="Arial" font-size="15" font-weight="bold" fill="#3B63D4" text-anchor="middle">FCFA</text>
  <line x1="118" y1="122" x2="162" y2="122" stroke="#D8E1FB" stroke-width="3" stroke-linecap="round"/>
  <!-- bouton payer -->
  <rect x="108" y="150" width="64" height="20" rx="10" fill="#F59E0B"/>
  <!-- bouclier securite accent -->
  <path d="M196 92 L216 100 L216 120 C216 134 206 142 196 146 C186 142 176 134 176 120 L176 100 Z"
        fill="#16A34A"/>
  <path d="M188 119 l5 6 l11 -13" stroke="#FFFFFF" stroke-width="3.2" stroke-linecap="round" stroke-linejoin="round" fill="none"/>
  <!-- pieces / coins -->
  <circle cx="74" cy="150" r="16" fill="#FFF7ED" stroke="#F59E0B" stroke-width="3.5" stroke-linecap="round" stroke-linejoin="round"/>
  <text x="74" y="156" font-family="Arial" font-size="14" font-weight="bold" fill="#F59E0B" text-anchor="middle">F</text>

</svg>
